# xmcd
#
# Track frame offsets:
#	150
#	33671
#	61818
#	86015
#	131974
#	155036
#	182253
#	228448
#	247450
#
# Disc length: 3800 seconds
#
# Revision: 0
# Processed by: cddbd v1.5.1PL0 Copyright (c) Steve Scherf et al.
# Submitted via: dBpowerAMP V4.0
#
DISCID=7d0ed609
DTITLE=Darrell Scott - Live in NC
DYEAR=2004
DGENRE=Bluegrass
TTITLE0=Miracle of Living
TTITLE1=It's The Whisky That Eases The Pain
TTITLE2=With A Memory Like Mine
TTITLE3=River Take Me
TTITLE4=Helen Of Troy PA
TTITLE5=You'll Never Leave Harlan Alive
TTITLE6=Folsom Prison/White Feightliner Blues
TTITLE7=Still Miss Someone
TTITLE8=Wayfaring Pilgrim
EXTD=
EXTT0=
EXTT1=
EXTT2=
EXTT3=
EXTT4=
EXTT5=
EXTT6=
EXTT7=
EXTT8=
PLAYORDER=
